<svg width="25" height="24" viewBox="0 0 25 24" fill="none" xmlns="http://www.w3.org/2000/svg">
<path fillRule="evenodd" clipRule="evenodd" d="M21.3 2.23998L13.3 3.83998C12.83 3.92998 12.5 4.33999 12.5 4.81999V9.99999C12.5 10.55 12.95 11 13.5 11H21.5C22.05 11 22.5 10.55 22.5 9.99999V3.21999C22.5 2.58999 21.92 2.11998 21.3 2.23998Z" fill="black"/>
<path fillRule="evenodd" clipRule="evenodd" d="M21.3 21.76L13.3 20.16C12.83 20.07 12.5 19.66 12.5 19.18V14C12.5 13.45 12.95 13 13.5 13H21.5C22.05 13 22.5 13.45 22.5 14V20.78C22.5 21.41 21.92 21.88 21.3 21.76Z" fill="black"/>
<path fillRule="evenodd" clipRule="evenodd" d="M9.28998 4.55996L3.28998 5.82995C2.82998 5.92995 2.5 6.33996 2.5 6.80996V9.99996C2.5 10.55 2.95 11 3.5 11H9.5C10.05 11 10.5 10.55 10.5 9.99996V5.52996C10.5 4.89996 9.90998 4.41996 9.28998 4.55996Z" fill="black"/>
<path fillRule="evenodd" clipRule="evenodd" d="M9.28998 19.44L3.28998 18.17C2.82998 18.07 2.5 17.66 2.5 17.19V14C2.5 13.45 2.95 13 3.5 13H9.5C10.05 13 10.5 13.45 10.5 14V18.47C10.5 19.1 9.90998 19.58 9.28998 19.44Z" fill="black"/>
</svg>
