<svg width="6" height="13" viewBox="0 0 6 13" fill="none" xmlns="http://www.w3.org/2000/svg">
<path d="M5.84265 11.5687L1.23165 6.88375C1.13052 6.78153 1.07379 6.64354 1.07379 6.49975C1.07379 6.35596 1.13052 6.21797 1.23165 6.11575L5.84165 1.43075C5.94272 1.32789 5.99936 1.18946 5.99936 1.04525C5.99936 0.901042 5.94272 0.762605 5.84165 0.659749C5.79227 0.6091 5.73325 0.568849 5.66808 0.541365C5.6029 0.513881 5.53288 0.499722 5.46214 0.499722C5.39141 0.499722 5.32139 0.513881 5.25622 0.541365C5.19104 0.568849 5.13202 0.6091 5.08265 0.659749L0.472645 5.34375C0.169719 5.65227 0 6.06737 0 6.49975C0 6.93213 0.169719 7.34723 0.472645 7.65575L5.08265 12.3397C5.13204 12.3906 5.19112 12.4309 5.25638 12.4585C5.32165 12.4861 5.39179 12.5003 5.46265 12.5003C5.5335 12.5003 5.60364 12.4861 5.66891 12.4585C5.73417 12.4309 5.79325 12.3906 5.84265 12.3397C5.94372 12.2369 6.00036 12.0985 6.00036 11.9542C6.00036 11.81 5.94372 11.6716 5.84265 11.5687Z" fill="black"/>
</svg>
