<svg width="6" height="13" viewBox="0 0 6 13" fill="none" xmlns="http://www.w3.org/2000/svg">
<path d="M0.158331 1.43125L4.76933 6.11625C4.87046 6.21847 4.92718 6.35646 4.92718 6.50025C4.92718 6.64404 4.87046 6.78203 4.76933 6.88425L0.159331 11.5693C0.0582557 11.6721 0.00161934 11.8105 0.00161934 11.9548C0.00161934 12.099 0.0582557 12.2374 0.159331 12.3403C0.208708 12.3909 0.267724 12.4312 0.332901 12.4586C0.398078 12.4861 0.468097 12.5003 0.538832 12.5003C0.609566 12.5003 0.679585 12.4861 0.744761 12.4586C0.809938 12.4312 0.868954 12.3909 0.918331 12.3403L5.52833 7.65625C5.83126 7.34773 6.00098 6.93263 6.00098 6.50025C6.00098 6.06787 5.83126 5.65277 5.52833 5.34425L0.918331 0.660251C0.868938 0.609449 0.809861 0.569067 0.744592 0.541492C0.679322 0.513917 0.609186 0.49971 0.538331 0.49971C0.467476 0.49971 0.397341 0.513917 0.332071 0.541492C0.266802 0.569067 0.207724 0.609449 0.158331 0.660251C0.0572553 0.763107 0.000618935 0.901545 0.000618935 1.04575C0.000618935 1.18996 0.0572553 1.3284 0.158331 1.43125Z" fill="black"/>
</svg>
