<svg width="21" height="12" viewBox="0 0 21 12" fill="none" xmlns="http://www.w3.org/2000/svg">
<path d="M2.17553 1.02755C2.08006 0.937329 1.96775 0.8668 1.84502 0.819984C1.7223 0.773169 1.59155 0.750984 1.46025 0.754699C1.32894 0.758413 1.19966 0.787953 1.07977 0.841632C0.959888 0.89531 0.851748 0.972076 0.76153 1.06755C0.671312 1.16302 0.600782 1.27533 0.553966 1.39805C0.507151 1.52078 0.484967 1.65153 0.488681 1.78283C0.492396 1.91413 0.521935 2.04342 0.575614 2.16331C0.629293 2.28319 0.706059 2.39133 0.80153 2.48155L9.80153 10.9815C9.9872 11.1571 10.233 11.2549 10.4885 11.2549C10.744 11.2549 10.9899 11.1571 11.1755 10.9815L20.1765 2.48155C20.2741 2.39193 20.3529 2.28381 20.4083 2.16348C20.4637 2.04316 20.4947 1.91302 20.4994 1.78062C20.5041 1.64823 20.4824 1.51622 20.4357 1.39226C20.389 1.2683 20.318 1.15487 20.2271 1.05855C20.1361 0.962231 20.0269 0.884942 19.9059 0.831176C19.7848 0.77741 19.6542 0.748238 19.5218 0.745353C19.3893 0.742468 19.2576 0.765929 19.1343 0.814373C19.011 0.862817 18.8986 0.935278 18.8035 1.02755L10.4885 8.87955L2.17553 1.02755Z" fill="#9A9B9F"/>
</svg>
