<svg width="12" height="9" viewBox="0 0 12 9" fill="none" xmlns="http://www.w3.org/2000/svg">
<path d="M1.01176 0.714986C0.954507 0.646313 0.887163 0.592626 0.813569 0.55699C0.739975 0.521354 0.661572 0.504467 0.582837 0.507295C0.504102 0.510122 0.426576 0.532608 0.354687 0.573468C0.282798 0.614328 0.217952 0.672762 0.163853 0.745434C0.109754 0.818106 0.0674608 0.903594 0.039388 0.997014C0.0113152 1.09044 -0.00198744 1.18996 0.00023986 1.28991C0.00246716 1.38985 0.0201807 1.48826 0.052369 1.57952C0.0845573 1.67078 0.13059 1.75309 0.187839 1.82177L5.58467 8.29193C5.69601 8.42555 5.84341 8.5 5.99663 8.5C6.14985 8.5 6.29725 8.42555 6.40859 8.29193L11.806 1.82177C11.8645 1.75355 11.9118 1.67125 11.945 1.57966C11.9782 1.48806 11.9968 1.389 11.9996 1.28822C12.0024 1.18745 11.9895 1.08696 11.9614 0.992605C11.9334 0.89825 11.8909 0.811904 11.8363 0.738585C11.7818 0.665267 11.7163 0.606435 11.6437 0.565509C11.5711 0.524582 11.4928 0.502376 11.4134 0.500181C11.334 0.497985 11.255 0.515843 11.1811 0.552719C11.1071 0.589594 11.0397 0.644751 10.9827 0.714986L6.76461 5.77131C6.3648 6.25056 5.62851 6.25052 5.22876 5.77122L1.01176 0.714986Z" fill="#292D32"/>
</svg>
