<svg width="17" height="8" viewBox="0 0 17 8" fill="none" xmlns="http://www.w3.org/2000/svg">
<path d="M1.43332 0.214986C1.35222 0.146313 1.25681 0.0926256 1.15256 0.0569897C1.0483 0.0213542 0.937227 0.00446749 0.825685 0.00729465C0.714144 0.0101218 0.604317 0.0326076 0.502473 0.0734677C0.40063 0.114328 0.308766 0.172762 0.232125 0.245434C0.155485 0.318106 0.0955695 0.403594 0.0557997 0.497014C0.0160298 0.590435 -0.00281554 0.689959 0.000339802 0.789906C0.00349514 0.889853 0.0285893 0.988264 0.0741894 1.07952C0.11979 1.17078 0.185003 1.25309 0.266106 1.32177L7.91162 7.79193C8.06934 7.92555 8.27817 8 8.49523 8C8.71228 8 8.92111 7.92555 9.07883 7.79193L16.7252 1.32177C16.8081 1.25355 16.875 1.17125 16.9221 1.07966C16.9692 0.988064 16.9955 0.889002 16.9995 0.788224C17.0035 0.687446 16.9851 0.58696 16.9454 0.492605C16.9056 0.39825 16.8454 0.311904 16.7681 0.238585C16.6909 0.165267 16.5981 0.106435 16.4953 0.0655088C16.3924 0.0245819 16.2815 0.00237608 16.169 0.000180721C16.0565 -0.00201511 15.9446 0.0158429 15.8399 0.0527186C15.7351 0.0895939 15.6396 0.144751 15.5588 0.214986L8.49523 6.1919L1.43332 0.214986Z" fill="#111111"/>
</svg>
