<svg width="19" height="20" viewBox="0 0 19 20" fill="none" xmlns="http://www.w3.org/2000/svg">
<path d="M8.55 14.75H10.45V9.05H8.55V14.75ZM9.5 7.15C9.76917 7.15 9.99495 7.0588 10.1773 6.8764C10.3597 6.694 10.4506 6.46853 10.45 6.2C10.4494 5.93147 10.3582 5.706 10.1764 5.5236C9.99463 5.3412 9.76917 5.25 9.5 5.25C9.23083 5.25 9.00537 5.3412 8.8236 5.5236C8.64183 5.706 8.55063 5.93147 8.55 6.2C8.54937 6.46853 8.64057 6.69432 8.8236 6.87735C9.00663 7.06038 9.2321 7.15127 9.5 7.15ZM9.5 19.5C8.18583 19.5 6.95083 19.2505 5.795 18.7514C4.63917 18.2523 3.63375 17.5756 2.77875 16.7212C1.92375 15.8669 1.24703 14.8615 0.748601 13.705C0.250168 12.5485 0.000634536 11.3135 1.20253e-06 10C-0.000632131 8.68646 0.248901 7.45147 0.748601 6.295C1.2483 5.13853 1.92502 4.13312 2.77875 3.27875C3.63248 2.42438 4.6379 1.74767 5.795 1.2486C6.9521 0.749533 8.1871 0.5 9.5 0.5C10.8129 0.5 12.0479 0.749533 13.205 1.2486C14.3621 1.74767 15.3675 2.42438 16.2212 3.27875C17.075 4.13312 17.752 5.13853 18.2523 6.295C18.7527 7.45147 19.0019 8.68646 19 10C18.9981 11.3135 18.7486 12.5485 18.2514 13.705C17.7542 14.8615 17.0775 15.8669 16.2212 16.7212C15.365 17.5756 14.3596 18.2526 13.205 18.7523C12.0504 19.252 10.8154 19.5013 9.5 19.5ZM9.5 17.6C11.6217 17.6 13.4187 16.8637 14.8912 15.3912C16.3637 13.9187 17.1 12.1217 17.1 10C17.1 7.87833 16.3637 6.08125 14.8912 4.60875C13.4187 3.13625 11.6217 2.4 9.5 2.4C7.37833 2.4 5.58125 3.13625 4.10875 4.60875C2.63625 6.08125 1.9 7.87833 1.9 10C1.9 12.1217 2.63625 13.9187 4.10875 15.3912C5.58125 16.8637 7.37833 17.6 9.5 17.6Z" fill="#111111"/>
</svg>
