<svg width="18" height="18" viewBox="0 0 18 18" fill="none" xmlns="http://www.w3.org/2000/svg">
<path d="M14.95 2.20006H13.25V1.35006C13.25 1.12463 13.1604 0.908426 13.001 0.74902C12.8416 0.589614 12.6254 0.500061 12.4 0.500061C12.1746 0.500061 11.9584 0.589614 11.799 0.74902C11.6396 0.908426 11.55 1.12463 11.55 1.35006V2.20006H6.45V1.35006C6.45 1.12463 6.36045 0.908426 6.20104 0.74902C6.04164 0.589614 5.82543 0.500061 5.6 0.500061C5.37457 0.500061 5.15837 0.589614 4.99896 0.74902C4.83955 0.908426 4.75 1.12463 4.75 1.35006V2.20006H3.05C2.3737 2.20006 1.7251 2.46872 1.24688 2.94694C0.76866 3.42516 0.5 4.07376 0.5 4.75006V14.9501C0.5 15.6264 0.76866 16.275 1.24688 16.7532C1.7251 17.2314 2.3737 17.5001 3.05 17.5001H14.95C15.6263 17.5001 16.2749 17.2314 16.7531 16.7532C17.2313 16.275 17.5 15.6264 17.5 14.9501V4.75006C17.5 4.07376 17.2313 3.42516 16.7531 2.94694C16.2749 2.46872 15.6263 2.20006 14.95 2.20006ZM15.8 14.9501C15.8 15.1755 15.7104 15.3917 15.551 15.5511C15.3916 15.7105 15.1754 15.8001 14.95 15.8001H3.05C2.82457 15.8001 2.60837 15.7105 2.44896 15.5511C2.28955 15.3917 2.2 15.1755 2.2 14.9501V9.00006H15.8V14.9501ZM15.8 7.30006H2.2V4.75006C2.2 4.52463 2.28955 4.30843 2.44896 4.14902C2.60837 3.98961 2.82457 3.90006 3.05 3.90006H4.75V4.75006C4.75 4.97549 4.83955 5.1917 4.99896 5.3511C5.15837 5.51051 5.37457 5.60006 5.6 5.60006C5.82543 5.60006 6.04164 5.51051 6.20104 5.3511C6.36045 5.1917 6.45 4.97549 6.45 4.75006V3.90006H11.55V4.75006C11.55 4.97549 11.6396 5.1917 11.799 5.3511C11.9584 5.51051 12.1746 5.60006 12.4 5.60006C12.6254 5.60006 12.8416 5.51051 13.001 5.3511C13.1604 5.1917 13.25 4.97549 13.25 4.75006V3.90006H14.95C15.1754 3.90006 15.3916 3.98961 15.551 4.14902C15.7104 4.30843 15.8 4.52463 15.8 4.75006V7.30006Z" fill="black" fill-opacity="0.7"/>
</svg>
