<svg
                    width="15"
                    height="15"
                    viewBox="0 0 15 15"
                    fill="none"
                    xmlns="http://www.w3.org/2000/svg"
                    className="w-6 h-6"
                  >
                    <path
                      d="M7.5 0.489258C5.65046 0.511699 3.88299 1.2564 2.57507 2.56432C1.26714 3.87225 0.522442 5.63971 0.5 7.48926C0.522442 9.3388 1.26714 11.1063 2.57507 12.4142C3.88299 13.7221 5.65046 14.4668 7.5 14.4893C9.34954 14.4668 11.117 13.7221 12.4249 12.4142C13.7329 11.1063 14.4776 9.3388 14.5 7.48926C14.4776 5.63971 13.7329 3.87225 12.4249 2.56432C11.117 1.2564 9.34954 0.511699 7.5 0.489258ZM11.5 7.98926H8V11.4893H7V7.98926H3.5V6.98926H7V3.48926H8V6.98926H11.5V7.98926Z"
                      fill="url(#paint0_linear_124_2676)"
                    />
                    <defs>
                      <linearGradient
                        id="paint0_linear_124_2676"
                        x1="2"
                        y1="1.76245"
                        x2="14.5"
                        y2="13.2625"
                        gradientUnits="userSpaceOnUse"
                      >
                        <stop stopColor="#38BDF8" /> {/* sky-400 */}
                        <stop offset="1" stopColor="#8B5CF6" />{" "}
                        {/* purple-500 */}
                      </linearGradient>
                    </defs>
                  </svg>