<svg width="7" height="13" viewBox="0 0 7 13" fill="none" xmlns="http://www.w3.org/2000/svg">
<path d="M0.188113 11.7876C0.128024 11.8449 0.0810475 11.9122 0.0498662 11.9858C0.0186849 12.0594 0.00390911 12.1378 0.00638294 12.2165C0.00885677 12.2953 0.028532 12.3728 0.0642843 12.4447C0.100037 12.5166 0.151167 12.5814 0.214755 12.6355C0.278343 12.6896 0.353145 12.7319 0.434887 12.76C0.516631 12.788 0.603714 12.8013 0.691167 12.7991C0.778621 12.7969 0.864731 12.7792 0.944581 12.747C1.02443 12.7148 1.09646 12.6688 1.15655 12.6115L6.81794 7.21469C6.93486 7.10335 7 6.95595 7 6.80273C7 6.64952 6.93486 6.50211 6.81794 6.39077L1.15655 0.993341C1.09685 0.934839 1.02484 0.887598 0.944699 0.854362C0.864556 0.821127 0.777877 0.802561 0.689696 0.79974C0.601515 0.796919 0.51359 0.809902 0.431029 0.837933C0.348468 0.865964 0.272916 0.908484 0.208763 0.963024C0.144608 1.01757 0.0931311 1.08304 0.0573201 1.15564C0.0215092 1.22825 0.00207901 1.30653 0.000157833 1.38595C-0.00176334 1.46537 0.0138626 1.54435 0.0461287 1.61829C0.0783944 1.69223 0.126657 1.75965 0.188113 1.81666L5.41791 6.80273L0.188113 11.7876Z" fill="#111111"/>
</svg>
