<svg width="62" height="68" viewBox="0 0 62 68" fill="none" xmlns="http://www.w3.org/2000/svg">
<path d="M45.125 6.87059C43.2814 4.65512 43.0165 2.46573 42.9128 1.60892C42.902 1.51982 42.893 1.44513 42.8841 1.38633C42.8807 1.36409 42.8774 1.34412 42.874 1.32651C42.8655 1.28283 42.8233 1.25427 42.7796 1.26271C42.7359 1.27115 42.7074 1.31339 42.7158 1.35707C42.7275 1.41755 42.7385 1.50919 42.7528 1.62817C42.8546 2.47686 43.1235 4.7172 45.0012 6.97362C45.0157 6.99112 45.0362 7.00088 45.0572 7.00243C45.0616 7.00275 45.066 7.00272 45.0704 7.00232C45.0861 7.0009 45.1016 6.99486 45.1146 6.98401C45.1488 6.95556 45.1535 6.90478 45.125 6.87059Z" fill="#D9D9D9"/>
<path fillRule="evenodd" clipRule="evenodd" d="M45.0778 7.00132C45.0759 7.00268 45.0733 7.00267 45.0704 7.00232C45.0729 7.0021 45.0753 7.00176 45.0778 7.00132Z" fill="#D9D9D9"/>
<path d="M31.9594 66.5796C51.0867 56.1719 57.2602 43.727 61 9.2664L42.8841 1.38633C42.893 1.44513 42.902 1.51982 42.9128 1.60892C43.0165 2.46573 43.2814 4.65512 45.125 6.87059C45.1535 6.90478 45.1488 6.95556 45.1146 6.98401C45.1036 6.99317 45.0909 6.9989 45.0778 7.00132C45.0759 7.00268 45.0733 7.00267 45.0704 7.00232C45.066 7.00272 45.0616 7.00275 45.0572 7.00243C40.1534 10.6475 35.5337 10.4965 34.6009 10.6251C34.108 13.7711 32.2145 15.3922 31.9065 15.772C31.9405 19.7333 31.9057 25.8218 31.9057 25.8218L31.9594 38.3257V66.5796Z" fill="url(#paint0_linear_111_1503)"/>
<path d="M1 9.82511C5.95185 44.5754 12.3404 56.7064 31.9594 66.5796V38.3257L31.9057 25.8218C31.9057 25.8218 31.9405 19.7333 31.9065 15.772C29.259 13.7668 28.6323 11.3126 28.424 10.8456C21.9033 11.0699 17.9818 8.03633 17.0855 7.58244C17.3663 7.15502 19.0814 5.31308 19.3402 2.00206C19.2782 2.02868 15.3483 3.67365 1 9.82511Z" fill="#4E4DFF"/>
<path d="M31.9594 66.5796C51.0867 56.1719 57.2602 43.727 61 9.2664L42.8841 1.38633M31.9594 66.5796C12.3404 56.7064 5.95185 44.5754 1 9.82511C15.3483 3.67365 19.2782 2.02868 19.3402 2.00206C19.0814 5.31308 17.3663 7.15502 17.0855 7.58244C17.9818 8.03633 21.9033 11.0699 28.424 10.8456M31.9594 66.5796V38.3257L31.9057 25.8218C31.9057 25.8218 31.9405 19.7333 31.9065 15.772M42.8841 1.38633C42.893 1.44513 42.902 1.51982 42.9128 1.60892C43.0165 2.46573 43.2814 4.65512 45.125 6.87059C45.1535 6.90478 45.1488 6.95556 45.1146 6.98401M42.8841 1.38633C42.8807 1.36409 42.8774 1.34412 42.874 1.32651C42.8655 1.28283 42.8233 1.25427 42.7796 1.26271C42.7359 1.27115 42.7074 1.31339 42.7158 1.35707C42.7275 1.41755 42.7385 1.50919 42.7528 1.62817C42.8546 2.47686 43.1235 4.7172 45.0012 6.97362C45.0157 6.99112 45.0362 7.00088 45.0572 7.00243M31.7314 5.85204C30.8165 9.14887 28.787 10.4625 28.424 10.8456M31.7314 5.85204C31.8964 6.33606 32.1462 8.3881 34.6009 10.6251M31.7314 5.85204C31.7314 5.85204 31.8742 12.013 31.9065 15.772M28.424 10.8456C28.6323 11.3126 29.259 13.7668 31.9065 15.772M34.6009 10.6251C34.108 13.7711 32.2145 15.3922 31.9065 15.772M34.6009 10.6251C35.5337 10.4965 40.1534 10.6475 45.0572 7.00243M45.1146 6.98401C45.1016 6.99486 45.0861 7.0009 45.0704 7.00232M45.1146 6.98401C45.1036 6.99317 45.0909 6.9989 45.0778 7.00132M45.0778 7.00132C45.0759 7.00268 45.0733 7.00267 45.0704 7.00232M45.0778 7.00132C45.0753 7.00176 45.0729 7.0021 45.0704 7.00232M45.0572 7.00243C45.0616 7.00275 45.066 7.00272 45.0704 7.00232M45.0572 7.00243C45.0603 7.00014 45.0656 7.00172 45.0704 7.00232" stroke="white"/>
<defs>
<linearGradient id="paint0_linear_111_1503" x1="61" y1="33.9204" x2="1" y2="33.9204" gradientUnits="userSpaceOnUse">
<stop/>
<stop offset="1" stopColor="#666666"/>
</linearGradient>
</defs>
</svg>
