<svg width="60" height="74" viewBox="0 0 60 74" fill="none" xmlns="http://www.w3.org/2000/svg">
<path d="M7.17306 38.9615L44.0958 0.461475L25.0372 31.9615L51.8105 32.3014L9.48871 73.695L34.1056 38.9615L7.17306 38.9615Z" fill="#111111"/>
<path d="M0.352 45.4828V43.9788H9.856V45.5148L6.976 45.8348L11.84 60.1388L16.704 45.8668L14.016 45.5148V43.9788H21.184V45.4828L18.592 45.8668L11.904 65.3228H9.696L2.528 45.7068L0.352 45.4828Z" fill="black"/>
<path d="M39.8575 27.2348L40.4655 22.6908H42.2895L42.6735 26.6908C43.5482 26.9468 44.4549 27.0748 45.3935 27.0748C46.9935 27.0748 48.1775 26.7122 48.9455 25.9868C49.7135 25.2615 50.0975 24.3442 50.0975 23.2348C50.0975 22.7442 50.0229 22.2748 49.8735 21.8268C49.7242 21.3788 49.4149 20.8882 48.9455 20.3548C48.4762 19.8002 47.7615 19.1602 46.8015 18.4348C45.7135 17.6028 44.8709 16.8348 44.2735 16.1308C43.6762 15.4268 43.2602 14.7548 43.0255 14.1148C42.7909 13.4535 42.6735 12.7922 42.6735 12.1308C42.6735 11.0002 42.9722 9.99749 43.5695 9.12282C44.1669 8.22682 44.9882 7.53349 46.0335 7.04282C47.1002 6.53082 48.3055 6.27482 49.6495 6.27482C50.5242 6.27482 51.3989 6.38149 52.2735 6.59482C53.1695 6.80816 54.0655 7.18149 54.9615 7.71482L54.2255 12.1948H52.3375L52.1455 8.25882C51.7189 8.08816 51.3349 7.98149 50.9935 7.93882C50.6735 7.89616 50.3535 7.87482 50.0335 7.87482C48.4762 7.87482 47.2602 8.17349 46.3855 8.77082C45.5322 9.34682 45.1055 10.2322 45.1055 11.4268C45.1055 12.2802 45.3402 13.0588 45.8095 13.7628C46.3002 14.4455 47.1109 15.2242 48.2415 16.0988C49.4575 17.0375 50.3749 17.8695 50.9935 18.5948C51.6335 19.3202 52.0709 19.9922 52.3055 20.6108C52.5402 21.2295 52.6575 21.8695 52.6575 22.5308C52.6575 23.7682 52.3589 24.8455 51.7615 25.7628C51.1642 26.6802 50.3322 27.3948 49.2655 27.9068C48.1989 28.4188 46.9509 28.6748 45.5215 28.6748C44.5615 28.6748 43.5482 28.5468 42.4815 28.2908C41.4149 28.0348 40.5402 27.6828 39.8575 27.2348Z" fill="black"/>
</svg>
