<svg width="62" height="68" viewBox="0 0 62 68" fill="none" xmlns="http://www.w3.org/2000/svg">
<path d="M45.1602 6.87059C43.3166 4.65512 43.0516 2.46573 42.9479 1.60892C42.9372 1.51982 42.9281 1.44513 42.9192 1.38633C42.9159 1.36409 42.9125 1.34412 42.9091 1.32651C42.9007 1.28283 42.8584 1.25427 42.8148 1.26271C42.7711 1.27115 42.7425 1.31339 42.751 1.35707C42.7627 1.41755 42.7737 1.50919 42.7879 1.62817C42.8898 2.47686 43.1587 4.7172 45.0363 6.97362C45.0509 6.99112 45.0713 7.00088 45.0923 7.00243C45.0967 7.00275 45.1012 7.00272 45.1056 7.00232C45.1213 7.0009 45.1367 6.99486 45.1498 6.98401C45.184 6.95556 45.1886 6.90478 45.1602 6.87059Z" fill="#D9D9D9"/>
<path fillRule="evenodd" clipRule="evenodd" d="M45.1129 7.00132C45.1111 7.00268 45.1084 7.00267 45.1056 7.00232C45.108 7.0021 45.1105 7.00176 45.1129 7.00132Z" fill="#D9D9D9"/>
<path d="M31.9945 66.5796C51.1218 56.1719 57.2954 43.727 61.0352 9.2664L42.9192 1.38633C42.9281 1.44513 42.9372 1.51982 42.9479 1.60892C43.0516 2.46573 43.3166 4.65512 45.1602 6.87059C45.1886 6.90478 45.184 6.95556 45.1498 6.98401C45.1388 6.99317 45.1261 6.9989 45.1129 7.00132C45.1111 7.00268 45.1084 7.00267 45.1056 7.00232C45.1012 7.00272 45.0967 7.00275 45.0923 7.00243C40.1885 10.6475 35.5689 10.4965 34.6361 10.6251C34.1431 13.7711 32.2496 15.3922 31.9416 15.772C31.9756 19.7333 31.9408 25.8218 31.9408 25.8218L31.9945 38.3257V66.5796Z" fill="url(#paint0_linear_111_1508)"/>
<path d="M1.03516 9.82511C5.98701 44.5754 12.3755 56.7064 31.9945 66.5796V38.3257L31.9408 25.8218C31.9408 25.8218 31.9756 19.7333 31.9416 15.772C29.2942 13.7668 28.6674 11.3126 28.4592 10.8456C21.9384 11.0699 18.0169 8.03633 17.1207 7.58244C17.4014 7.15502 19.1165 5.31308 19.3754 2.00206C19.3133 2.02868 15.3834 3.67365 1.03516 9.82511Z" fill="#A54DFF"/>
<path d="M31.9945 66.5796C51.1218 56.1719 57.2954 43.727 61.0352 9.2664L42.9192 1.38633M31.9945 66.5796C12.3755 56.7064 5.98701 44.5754 1.03516 9.82511C15.3834 3.67365 19.3133 2.02868 19.3754 2.00206C19.1165 5.31308 17.4014 7.15502 17.1207 7.58244C18.0169 8.03633 21.9384 11.0699 28.4592 10.8456M31.9945 66.5796V38.3257L31.9408 25.8218C31.9408 25.8218 31.9756 19.7333 31.9416 15.772M42.9192 1.38633C42.9281 1.44513 42.9372 1.51982 42.9479 1.60892C43.0516 2.46573 43.3166 4.65512 45.1602 6.87059C45.1886 6.90478 45.184 6.95556 45.1498 6.98401M42.9192 1.38633C42.9159 1.36409 42.9125 1.34412 42.9091 1.32651C42.9007 1.28283 42.8584 1.25427 42.8148 1.26271C42.7711 1.27115 42.7425 1.31339 42.751 1.35707C42.7627 1.41755 42.7737 1.50919 42.7879 1.62817C42.8898 2.47686 43.1587 4.7172 45.0363 6.97362C45.0509 6.99112 45.0713 7.00088 45.0923 7.00243M31.7665 5.85204C30.8516 9.14887 28.8222 10.4625 28.4592 10.8456M31.7665 5.85204C31.9316 6.33606 32.1814 8.3881 34.6361 10.6251M31.7665 5.85204C31.7665 5.85204 31.9094 12.013 31.9416 15.772M28.4592 10.8456C28.6674 11.3126 29.2942 13.7668 31.9416 15.772M34.6361 10.6251C34.1431 13.7711 32.2496 15.3922 31.9416 15.772M34.6361 10.6251C35.5689 10.4965 40.1885 10.6475 45.0923 7.00243M45.1498 6.98401C45.1367 6.99486 45.1213 7.0009 45.1056 7.00232M45.1498 6.98401C45.1388 6.99317 45.1261 6.9989 45.1129 7.00132M45.1129 7.00132C45.1111 7.00268 45.1084 7.00267 45.1056 7.00232M45.1129 7.00132C45.1105 7.00176 45.108 7.0021 45.1056 7.00232M45.0923 7.00243C45.0967 7.00275 45.1012 7.00272 45.1056 7.00232M45.0923 7.00243C45.0954 7.00014 45.1008 7.00172 45.1056 7.00232" stroke="white"/>
<defs>
<linearGradient id="paint0_linear_111_1508" x1="61.0352" y1="33.9204" x2="1.03516" y2="33.9204" gradientUnits="userSpaceOnUse">
<stop/>
<stop offset="1" stopColor="#666666"/>
</linearGradient>
</defs>
</svg>
