<svg width="19" height="23" viewBox="0 0 19 23" fill="none" xmlns="http://www.w3.org/2000/svg">
<path d="M16.7899 10.5225C16.4943 10.1558 16.1343 9.83804 15.8001 9.52026C14.9388 8.7869 13.9619 8.26133 13.1392 7.49131C11.2238 5.70682 10.7996 2.76118 12.0208 0.5C10.7996 0.781119 9.73264 1.41669 8.81995 2.11338C5.49056 4.65567 4.17937 9.14136 5.74765 12.9915C5.79907 13.1137 5.85049 13.2359 5.85049 13.3948C5.85049 13.6637 5.65767 13.9082 5.40058 14.0059C5.10492 14.1282 4.7964 14.0548 4.55216 13.8593C4.4792 13.8012 4.41818 13.7307 4.37219 13.6515C2.9196 11.9037 2.68821 9.39803 3.66518 7.39353C1.51843 9.0558 0.348644 11.867 0.515756 14.5193C0.592885 15.1304 0.670013 15.7415 0.888545 16.3527C1.06851 17.086 1.41559 17.8194 1.80123 18.4672C3.18955 20.5817 5.5934 22.0973 8.17721 22.4028C10.9281 22.7329 13.8719 22.2562 15.9801 20.4472C18.3325 18.4183 19.1552 15.1671 17.9468 12.3803L17.7797 12.0626C17.5098 11.5003 16.7899 10.5225 16.7899 10.5225ZM12.7278 18.2227C12.3679 18.5161 11.7766 18.8339 11.3138 18.9561C9.87404 19.445 8.43431 18.7605 7.58589 17.9538C9.11561 17.6116 10.0283 16.536 10.2983 15.4482C10.5168 14.4704 10.1054 13.6637 9.93832 12.7226C9.78406 11.8181 9.80977 11.0481 10.1568 10.2047C10.4011 10.6692 10.6582 11.1336 10.9667 11.5003C11.9565 12.7226 13.5119 13.2604 13.8462 14.9226C13.8976 15.0938 13.9233 15.2649 13.9233 15.4482C13.9619 16.4505 13.4991 17.5505 12.7278 18.2227Z" fill="#111111"/>
</svg>
