<svg width="28" height="35" viewBox="0 0 28 35" fill="none" xmlns="http://www.w3.org/2000/svg">
<path d="M4.37516 4.06264C4.37516 2.98516 4.80318 1.95181 5.56508 1.18992C6.32697 0.428027 7.36032 0 8.4378 0H23.4383C24.5158 0 25.5492 0.428027 26.3111 1.18992C27.073 1.95181 27.501 2.98516 27.501 4.06264V26.5634C27.501 27.097 27.3959 27.6253 27.1917 28.1182C26.9876 28.6111 26.6883 29.0589 26.3111 29.4362C25.9338 29.8134 25.4859 30.1127 24.993 30.3168C24.5001 30.521 23.9719 30.6261 23.4383 30.6261H8.4378C7.90429 30.6261 7.376 30.521 6.88309 30.3168C6.39019 30.1127 5.94233 29.8134 5.56508 29.4362C5.18783 29.0589 4.88857 28.6111 4.68441 28.1182C4.48024 27.6253 4.37516 27.097 4.37516 26.5634V4.06264ZM0 8.4378C0 6.74774 1.03254 5.29894 2.50009 4.68642V26.8747C2.50009 28.3666 3.09274 29.7974 4.14767 30.8523C5.2026 31.9073 6.63339 32.4999 8.12529 32.4999H22.8146C22.506 33.2405 21.9851 33.8731 21.3175 34.318C20.6499 34.7629 19.8655 35.0002 19.0632 35H8.12529C5.97055 35 3.90404 34.1441 2.38028 32.6206C0.856533 31.0971 0.000331499 29.0307 0 26.876V8.4378Z" fill="#D9D9D9"/>
</svg>
