<svg width="20" height="20" className="w-5 h-5" viewBox="0 0 20 20" fill="none" xmlns="http://www.w3.org/2000/svg">
<path fillRule="evenodd" clipRule="evenodd" d="M4.14014 5C4.14014 3.67392 4.66692 2.40215 5.6046 1.46447C6.54228 0.526784 7.81405 0 9.14014 0C10.4662 0 11.738 0.526784 12.6757 1.46447C13.6134 2.40215 14.1401 3.67392 14.1401 5C14.1401 6.32608 13.6134 7.59785 12.6757 8.53553C11.738 9.47322 10.4662 10 9.14014 10C7.81405 10 6.54228 9.47322 5.6046 8.53553C4.66692 7.59785 4.14014 6.32608 4.14014 5ZM2.96214 12.672C4.56514 11.694 6.74514 11 9.14014 11C9.58714 11 10.0271 11.024 10.4561 11.07C10.6279 11.0884 10.792 11.151 10.9324 11.2517C11.0727 11.3524 11.1846 11.4878 11.2571 11.6446C11.3296 11.8014 11.3603 11.9743 11.3461 12.1465C11.3319 12.3186 11.2733 12.4842 11.1761 12.627C10.4987 13.6212 10.1376 14.7969 10.1401 16C10.1401 16.92 10.3471 17.79 10.7151 18.567C10.7868 18.7184 10.8194 18.8853 10.8098 19.0525C10.8001 19.2198 10.7487 19.3819 10.6601 19.524C10.5715 19.6662 10.4486 19.7838 10.3027 19.8661C10.1568 19.9484 9.99261 19.9927 9.82514 19.995C9.59914 19.998 9.37014 20 9.14014 20C6.91114 20 4.80514 19.86 3.22714 19.442C2.44214 19.234 1.70314 18.936 1.14314 18.486C0.550137 18.01 0.140137 17.345 0.140137 16.5C0.140137 15.713 0.498137 14.977 0.984137 14.361C1.47814 13.736 2.16114 13.161 2.96214 12.671V12.672ZM15.6401 14C15.2423 14 14.8608 14.158 14.5795 14.4393C14.2982 14.7206 14.1401 15.1022 14.1401 15.5C14.1401 15.8978 14.2982 16.2794 14.5795 16.5607C14.8608 16.842 15.2423 17 15.6401 17C16.038 17 16.4195 16.842 16.7008 16.5607C16.9821 16.2794 17.1401 15.8978 17.1401 15.5C17.1401 15.1022 16.9821 14.7206 16.7008 14.4393C16.4195 14.158 16.038 14 15.6401 14ZM12.1401 15.5C12.1405 14.9675 12.2624 14.4421 12.4966 13.9638C12.7307 13.4855 13.0708 13.067 13.4912 12.74C13.9115 12.413 14.4009 12.1863 14.922 12.0771C15.4432 11.9678 15.9825 11.9789 16.4987 12.1095C17.015 12.2402 17.4946 12.4869 17.9011 12.8309C18.3076 13.1749 18.6302 13.6071 18.8444 14.0946C19.0587 14.5821 19.1588 15.1121 19.1373 15.6442C19.1157 16.1762 18.9731 16.6964 18.7201 17.165L19.5541 18C19.6496 18.0922 19.7258 18.2026 19.7782 18.3246C19.8306 18.4466 19.8582 18.5778 19.8594 18.7106C19.8605 18.8434 19.8352 18.9751 19.785 19.098C19.7347 19.2208 19.6604 19.3325 19.5665 19.4264C19.4726 19.5203 19.361 19.5945 19.2381 19.6448C19.1152 19.6951 18.9835 19.7204 18.8507 19.7192C18.718 19.7181 18.5867 19.6905 18.4647 19.6381C18.3427 19.5857 18.2324 19.5095 18.1401 19.414L17.3051 18.579C16.772 18.8674 16.173 19.0123 15.567 18.9996C14.961 18.987 14.3686 18.8171 13.848 18.5068C13.3273 18.1964 12.8962 17.7561 12.5968 17.229C12.2974 16.7019 12.1401 16.1062 12.1401 15.5Z" fill="currentColor"/>
</svg>
