<svg width="21" height="21" viewBox="0 0 21 21" fill="none" xmlns="http://www.w3.org/2000/svg">
<path d="M17.5 2.63672H15.5V1.63672C15.5 1.3715 15.3946 1.11715 15.2071 0.929612C15.0196 0.742076 14.7652 0.636719 14.5 0.636719C14.2348 0.636719 13.9804 0.742076 13.7929 0.929612C13.6054 1.11715 13.5 1.3715 13.5 1.63672V2.63672H7.5V1.63672C7.5 1.3715 7.39464 1.11715 7.20711 0.929612C7.01957 0.742076 6.76522 0.636719 6.5 0.636719C6.23478 0.636719 5.98043 0.742076 5.79289 0.929612C5.60536 1.11715 5.5 1.3715 5.5 1.63672V2.63672H3.5C2.70435 2.63672 1.94129 2.95279 1.37868 3.5154C0.816071 4.07801 0.5 4.84107 0.5 5.63672V17.6367C0.5 18.4324 0.816071 19.1954 1.37868 19.758C1.94129 20.3206 2.70435 20.6367 3.5 20.6367H17.5C18.2956 20.6367 19.0587 20.3206 19.6213 19.758C20.1839 19.1954 20.5 18.4324 20.5 17.6367V5.63672C20.5 4.84107 20.1839 4.07801 19.6213 3.5154C19.0587 2.95279 18.2956 2.63672 17.5 2.63672ZM18.5 17.6367C18.5 17.9019 18.3946 18.1563 18.2071 18.3438C18.0196 18.5314 17.7652 18.6367 17.5 18.6367H3.5C3.23478 18.6367 2.98043 18.5314 2.79289 18.3438C2.60536 18.1563 2.5 17.9019 2.5 17.6367V10.6367H18.5V17.6367ZM18.5 8.63672H2.5V5.63672C2.5 5.3715 2.60536 5.11715 2.79289 4.92961C2.98043 4.74208 3.23478 4.63672 3.5 4.63672H5.5V5.63672C5.5 5.90194 5.60536 6.15629 5.79289 6.34383C5.98043 6.53136 6.23478 6.63672 6.5 6.63672C6.76522 6.63672 7.01957 6.53136 7.20711 6.34383C7.39464 6.15629 7.5 5.90194 7.5 5.63672V4.63672H13.5V5.63672C13.5 5.90194 13.6054 6.15629 13.7929 6.34383C13.9804 6.53136 14.2348 6.63672 14.5 6.63672C14.7652 6.63672 15.0196 6.53136 15.2071 6.34383C15.3946 6.15629 15.5 5.90194 15.5 5.63672V4.63672H17.5C17.7652 4.63672 18.0196 4.74208 18.2071 4.92961C18.3946 5.11715 18.5 5.3715 18.5 5.63672V8.63672Z" fill="#111111"/>
</svg>
