<svg width="25" height="26" viewBox="0 0 25 26" fill="none" xmlns="http://www.w3.org/2000/svg">
<path d="M12.5 16.125C14.2259 16.125 15.625 14.7259 15.625 13C15.625 11.2741 14.2259 9.875 12.5 9.875C10.7741 9.875 9.375 11.2741 9.375 13C9.375 14.7259 10.7741 16.125 12.5 16.125Z" stroke="black" strokeWidth="1.5" strokeMiterlimit="10" strokeLinecap="round" strokeLinejoin="round"/>
<path d="M2.08301 13.9168V12.0835C2.08301 11.0002 2.96842 10.1043 4.06217 10.1043C5.94759 10.1043 6.71842 8.77099 5.77051 7.13557C5.22884 6.19807 5.55176 4.97932 6.49967 4.43766L8.30176 3.40641C9.12467 2.91682 10.1872 3.20849 10.6768 4.03141L10.7913 4.22932C11.7288 5.86474 13.2705 5.86474 14.2184 4.22932L14.333 4.03141C14.8226 3.20849 15.8851 2.91682 16.708 3.40641L18.5101 4.43766C19.458 4.97932 19.7809 6.19807 19.2393 7.13557C18.2913 8.77099 19.0622 10.1043 20.9476 10.1043C22.0309 10.1043 22.9268 10.9897 22.9268 12.0835V13.9168C22.9268 15.0002 22.0413 15.896 20.9476 15.896C19.0622 15.896 18.2913 17.2293 19.2393 18.8647C19.7809 19.8127 19.458 21.021 18.5101 21.5627L16.708 22.5939C15.8851 23.0835 14.8226 22.7918 14.333 21.9689L14.2184 21.771C13.2809 20.1356 11.7393 20.1356 10.7913 21.771L10.6768 21.9689C10.1872 22.7918 9.12467 23.0835 8.30176 22.5939L6.49967 21.5627C5.55176 21.021 5.22884 19.8022 5.77051 18.8647C6.71842 17.2293 5.94759 15.896 4.06217 15.896C2.96842 15.896 2.08301 15.0002 2.08301 13.9168Z" stroke="black" strokeWidth="1.5" strokeMiterlimit="10" strokeLinecap="round" strokeLinejoin="round"/>
</svg>
