<svg width="26" height="23" viewBox="0 0 26 23" fill="none" xmlns="http://www.w3.org/2000/svg">
<path d="M13.0047 1.72497L3.4465 11.4446C2.36024 12.5493 1.75 14.0475 1.75 15.6096C1.75 17.1718 2.36024 18.6699 3.4465 19.7746C3.98445 20.3216 4.62309 20.7556 5.32596 21.0516C6.02883 21.3476 6.78217 21.5 7.54295 21.5C8.30373 21.5 9.05706 21.3476 9.75994 21.0516C10.4628 20.7556 11.1014 20.3216 11.6394 19.7746L23.0186 8.20471C23.3773 7.84003 23.6618 7.40708 23.856 6.93058C24.0501 6.45408 24.15 5.94336 24.15 5.42758C24.15 4.91181 24.0501 4.40109 23.856 3.92459C23.6618 3.44809 23.3773 3.01514 23.0186 2.65046C22.6599 2.28572 22.2341 1.9964 21.7655 1.799C21.2969 1.6016 20.7946 1.5 20.2874 1.5C19.7802 1.5 19.2779 1.6016 18.8093 1.799C18.3406 1.9964 17.9149 2.28572 17.5562 2.65046L6.17768 14.221C5.99833 14.4034 5.85606 14.6199 5.75899 14.8581C5.66193 15.0964 5.61197 15.3517 5.61197 15.6096C5.61197 15.8675 5.66193 16.1229 5.75899 16.3611C5.85606 16.5994 5.99833 16.8158 6.17768 16.9982C6.53981 17.3663 7.0309 17.5731 7.54295 17.5731C8.055 17.5731 8.54609 17.3663 8.90822 16.9982L18.467 7.27856" stroke="#111111" strokeWidth="2" strokeLinecap="round" strokeLinejoin="round"/>
</svg>
