<svg width="24" height="19" viewBox="0 0 24 19" fill="none" xmlns="http://www.w3.org/2000/svg">
<path d="M14.6426 3.11841V6.11841H13.1635V3.11841C13.1635 2.90525 12.9268 2.80262 12.7691 2.80262C12.7198 2.80262 12.6705 2.81051 12.6212 2.8263L4.80178 5.18683C4.27918 5.34472 3.94392 5.73946 3.94392 6.18946V6.71841C3.04661 7.25525 2.46484 8.11578 2.46484 9.08683V6.18946C2.46484 5.24999 3.18466 4.41315 4.27918 4.08157L12.1084 1.71315C12.3253 1.64999 12.5521 1.61841 12.7691 1.61841C13.7551 1.61841 14.6426 2.25788 14.6426 3.11841Z" fill="#292D32"/>
<path d="M21.2 11.4473V12.2368C21.2 12.45 20.9929 12.6237 20.7168 12.6316H19.2772C18.7546 12.6316 18.2813 12.3237 18.2418 11.9131C18.2122 11.6684 18.3306 11.4395 18.5278 11.2816C18.7053 11.1316 18.9518 11.0526 19.218 11.0526H20.7069C20.9929 11.0605 21.2 11.2342 21.2 11.4473Z" fill="#292D32"/>
<path d="M19.208 10.2237H20.2138C20.7561 10.2237 21.1998 9.86841 21.1998 9.4342V9.08683C21.1998 7.45262 19.5334 6.11841 17.4923 6.11841H6.17239C5.33425 6.11841 4.56513 6.33946 3.94392 6.71841C3.04661 7.25525 2.46484 8.11578 2.46484 9.08683V14.4C2.46484 16.0342 4.13127 17.3684 6.17239 17.3684H17.4923C19.5334 17.3684 21.1998 16.0342 21.1998 14.4V14.25C21.1998 13.8158 20.7561 13.4605 20.2138 13.4605H19.3559C18.4093 13.4605 17.5021 12.9947 17.2556 12.2605C17.0485 11.6605 17.295 11.0842 17.7881 10.6974C18.1529 10.3974 18.6558 10.2237 19.208 10.2237ZM13.8044 10.0658H6.90207C6.49779 10.0658 6.16253 9.79736 6.16253 9.47367C6.16253 9.14999 6.49779 8.88157 6.90207 8.88157H13.8044C14.2087 8.88157 14.544 9.14999 14.544 9.47367C14.544 9.79736 14.2087 10.0658 13.8044 10.0658Z" fill="#292D32"/>
</svg>
