<svg width="24" height="24" viewBox="0 0 24 24" fill="none" xmlns="http://www.w3.org/2000/svg">
<path d="M20.8999 9.85L21.4899 19.74C21.5099 20.01 21.3799 20.19 21.3099 20.27C21.2299 20.36 21.0599 20.5 20.7799 20.5H18.0499L20.2099 9.85H20.8999ZM21.9999 6L21.9899 6.02C22.0099 6.26 21.9899 6.51 21.9299 6.76L14.5599 20.29C14.3199 21.3 13.4199 22 12.3799 22H20.7799C22.0699 22 23.0899 20.91 22.9899 19.62L21.9999 6Z" fill="#292D32"/>
<path d="M11.4502 2.24002C11.5502 1.84002 11.3002 1.43002 10.9002 1.33002C10.5002 1.24002 10.0902 1.48002 9.99023 1.88002L9.49023 3.95002H11.0302L11.4502 2.24002Z" fill="#292D32"/>
<path d="M18.0499 2.20999C18.1399 1.79999 17.8799 1.40999 17.4699 1.31999C17.0699 1.22999 16.6699 1.48999 16.5799 1.89999L16.1299 3.96999H17.6699L18.0499 2.20999Z" fill="#292D32"/>
<path d="M21.8198 5.33C21.4898 4.53 20.7098 3.96 19.7498 3.96H17.6698L17.1098 6.55C17.0298 6.9 16.7198 7.14 16.3798 7.14C16.3298 7.14 16.2698 7.14 16.2198 7.12C15.8198 7.03 15.5598 6.63 15.6398 6.23L16.1298 3.95H11.0298L10.3998 6.55C10.3198 6.89 10.0098 7.12 9.66975 7.12C9.60975 7.12 9.54976 7.11 9.48975 7.1C9.08976 7 8.83975 6.6 8.93975 6.19L9.47975 3.94H7.44975C6.46975 3.94 5.59975 4.58 5.30975 5.52L1.09975 19.07C0.659754 20.52 1.72975 22 3.23975 22H16.3798C17.4198 22 18.3198 21.3 18.5598 20.29L21.9298 6.76C21.9898 6.51 22.0098 6.26 21.9898 6.02C21.9698 5.78 21.9198 5.54 21.8198 5.33ZM14.6998 16.75H6.69975C6.28975 16.75 5.94975 16.41 5.94975 16C5.94975 15.59 6.28975 15.25 6.69975 15.25H14.6998C15.1098 15.25 15.4498 15.59 15.4498 16C15.4498 16.41 15.1098 16.75 14.6998 16.75ZM15.6998 12.75H7.69975C7.28975 12.75 6.94975 12.41 6.94975 12C6.94975 11.59 7.28975 11.25 7.69975 11.25H15.6998C16.1098 11.25 16.4498 11.59 16.4498 12C16.4498 12.41 16.1098 12.75 15.6998 12.75Z" fill="#292D32"/>
</svg>
