<svg width="24" height="25" viewBox="0 0 24 25" fill="none" xmlns="http://www.w3.org/2000/svg">
<path d="M11.25 18.8867H9C7.9 18.8867 7 19.7867 7 20.8867V21.1367H6C5.59 21.1367 5.25 21.4767 5.25 21.8867C5.25 22.2967 5.59 22.6367 6 22.6367H18C18.41 22.6367 18.75 22.2967 18.75 21.8867C18.75 21.4767 18.41 21.1367 18 21.1367H17V20.8867C17 19.7867 16.1 18.8867 15 18.8867H12.75V16.5967C12.5 16.6267 12.25 16.6367 12 16.6367C11.75 16.6367 11.5 16.6267 11.25 16.5967V18.8867Z" fill="#292D32"/>
<path d="M18.4793 12.2767C19.1393 12.0267 19.7193 11.6167 20.1793 11.1567C21.1093 10.1267 21.7193 8.89672 21.7193 7.45672C21.7193 6.01672 20.5893 4.88672 19.1493 4.88672H18.5893C17.9393 3.55672 16.5793 2.63672 14.9993 2.63672H8.9993C7.4193 2.63672 6.0593 3.55672 5.4093 4.88672H4.8493C3.4093 4.88672 2.2793 6.01672 2.2793 7.45672C2.2793 8.89672 2.8893 10.1267 3.8193 11.1567C4.2793 11.6167 4.8593 12.0267 5.5193 12.2767C6.5593 14.8367 9.0593 16.6367 11.9993 16.6367C14.9393 16.6367 17.4393 14.8367 18.4793 12.2767ZM14.8393 9.08672L14.2193 9.84672C14.1193 9.95672 14.0493 10.1767 14.0593 10.3267L14.1193 11.3067C14.1593 11.9067 13.7293 12.2167 13.1693 11.9967L12.2593 11.6367C12.1193 11.5867 11.8793 11.5867 11.7393 11.6367L10.8293 11.9967C10.2693 12.2167 9.8393 11.9067 9.8793 11.3067L9.9393 10.3267C9.9493 10.1767 9.8793 9.95672 9.7793 9.84672L9.1593 9.08672C8.7693 8.62672 8.9393 8.11672 9.5193 7.96672L10.4693 7.72672C10.6193 7.68672 10.7993 7.54672 10.8793 7.41672L11.4093 6.59672C11.7393 6.08672 12.2593 6.08672 12.5893 6.59672L13.1193 7.41672C13.1993 7.54672 13.3793 7.68672 13.5293 7.72672L14.4793 7.96672C15.0593 8.11672 15.2293 8.62672 14.8393 9.08672Z" fill="#292D32"/>
</svg>
