<svg width="49" height="50" viewBox="0 0 49 50" fill="none" xmlns="http://www.w3.org/2000/svg">
  <path fill-rule="evenodd" clip-rule="evenodd" d="M24.1573 0L24.7343 0.331975L37.5022 7.67789L38.0792 8.00987V8.67382V19.6777L48.423 25.6289L49 25.9609V26.6248V41.3166V41.9806L48.423 42.3126L35.6551 49.6585L35.0781 49.9905L34.5011 49.6585L24.5083 43.9092L14.4989 49.668L13.9219 50L13.3449 49.668L0.577005 42.3221L0 41.9901V41.3262V26.6344V25.9704L0.577005 25.6384L10.2353 20.0816V8.67382V8.00987L10.8124 7.67789L23.5803 0.331975L24.1573 0ZM26.8163 42.5813L35.0781 47.3347L46.692 40.6527V27.2888L38.0792 22.3335V23.3656V24.0296L37.5022 24.3616L27.8439 29.9184V41.3262V41.9901L27.2669 42.3221L26.8163 42.5813ZM35.7712 18.3498V9.33777L24.1573 2.6558L12.5434 9.33777V18.7537L13.3449 18.2925L13.9219 17.9605L14.4989 18.2925L24.4917 24.0418L34.5011 18.283L35.0781 17.951L35.6551 18.283L35.7712 18.3498ZM26.7997 25.3697L35.0781 20.6068L35.7712 21.0056V22.7017L27.8439 27.2626V26.6344V25.9704L27.2669 25.6384L26.7997 25.3697ZM22.1837 25.3697L13.9219 20.6163L12.5434 21.4095V22.7017L21.1561 27.657V26.6248V25.9609L21.7331 25.6289L22.1837 25.3697ZM23.4641 28.9849V27.2888L24.4917 26.6976L25.5359 27.2983V28.5905L24.1573 29.3837L23.4641 28.9849ZM23.4641 31.6407L23.5803 31.7075L24.1573 32.0395L24.7343 31.7075L25.5359 31.2463V40.6622L24.5083 41.2534L23.4641 40.6527V31.6407ZM21.1561 30.3128V41.3166V41.9806L21.7331 42.3126L22.2003 42.5813L13.9219 47.3442L2.30802 40.6622V27.2983L10.2353 22.7374V23.3656V24.0296L10.8124 24.3616L21.1561 30.3128Z" fill="url(#paint0_linear_25_603)"/>
  <defs>
    <linearGradient id="paint0_linear_25_603" x1="16.6421" y1="-1.19101" x2="37.4044" y2="50.9536" gradientUnits="userSpaceOnUse">
      <stop offset="0.1039" stop-color="#9F4DFF"/>
      <stop offset="0.9473" stop-color="#504DFF"/>
    </linearGradient>
  </defs>
</svg>
