<svg width="413" height="315" viewBox="0 0 413 315" fill="none" xmlns="http://www.w3.org/2000/svg">
<rect width="412.985" height="315" rx="25" fill="#F9F1F1"/>
<rect x="27.9624" y="27.9624" width="357.718" height="262.363" rx="17" stroke="#D9D9D9" strokeWidth="2"/>
<rect x="51.2944" y="52.6096" width="57.8706" height="56.5553" rx="8" fill="#D9D9D9"/>
<rect x="119.687" y="52.6096" width="57.8706" height="56.5553" rx="8" fill="#D9D9D9"/>
<line x1="51.2944" y1="264.279" x2="256.472" y2="264.279" stroke="white" strokeWidth="2"/>
<rect x="287.38" y="133.497" width="82.8601" height="74.3111" rx="8" fill="#D9D9D9"/>
<rect x="287.38" y="218.33" width="82.8601" height="68.3925" rx="8" fill="#D9D9D9"/>
<path d="M318.654 43.6457C312.396 45.3225 306.669 48.5657 302.011 53.0695C297.354 57.5732 293.921 63.1891 292.035 69.3874C290.15 75.5857 289.874 82.1621 291.234 88.4964C292.595 94.8307 295.546 100.714 299.81 105.592C304.074 110.469 309.51 114.181 315.606 116.375C321.702 118.57 328.256 119.175 334.651 118.135C341.046 117.095 347.07 114.443 352.156 110.429C357.241 106.415 361.221 101.172 363.719 95.1945L347.292 88.3302C345.96 91.5178 343.838 94.3136 341.126 96.4538C338.414 98.5941 335.202 100.008 331.792 100.563C328.382 101.118 324.887 100.795 321.637 99.6246C318.386 98.4544 315.487 96.4754 313.213 93.8745C310.94 91.2735 309.366 88.1362 308.64 84.7584C307.915 81.3807 308.062 77.8738 309.068 74.5686C310.073 71.2634 311.904 68.2688 314.387 65.8672C316.871 63.4656 319.925 61.7362 323.262 60.842L318.654 43.6457Z" fill="#111111"/>
<path d="M363.212 96.4361C366.359 89.773 367.51 82.3406 366.523 75.0377C365.537 67.7348 362.456 60.874 357.653 55.2849C352.85 49.6958 346.531 45.6177 339.459 43.5437C332.388 41.4696 324.867 41.4885 317.806 43.5979L322.902 60.6559C326.668 59.5311 330.678 59.521 334.449 60.627C338.22 61.733 341.589 63.9076 344.15 66.8879C346.711 69.8683 348.354 73.5268 348.88 77.421C349.406 81.3153 348.793 85.2785 347.115 88.8316L363.212 96.4361Z" fill="#D9D9D9"/>
<rect x="51.2944" y="147.964" width="205.177" height="63.1315" rx="8" fill="#F9F9F9"/>
<line x1="51.2944" y1="190.626" x2="256.472" y2="190.626" stroke="white" stroke-width="2"/>
<rect x="51.2944" y="130.866" width="29.5929" height="11.1795" rx="4" fill="#D9D9D9"/>
<rect x="86.8059" y="130.866" width="29.5929" height="11.1795" rx="4" fill="#D9D9D9"/>
<rect x="121.66" y="130.866" width="29.5929" height="11.1795" rx="4" fill="#D9D9D9"/>
<rect x="157.171" y="130.866" width="29.5929" height="11.1795" rx="4" fill="#D9D9D9"/>
<rect x="192.025" y="130.866" width="29.5929" height="11.1795" rx="4" fill="#D9D9D9"/>
<rect x="227.537" y="130.866" width="28.9353" height="11.1795" rx="4" fill="#D9D9D9"/>
<rect x="61.1587" y="154.541" width="8.54906" height="8.54906" fill="#D9D9D9"/>
<rect x="206.493" y="197.286" width="38.142" height="10.5219" rx="2" fill="#D9D9D9"/>
<path d="M72.3381 158.829C72.3381 158.277 72.7859 157.829 73.3381 157.829H87.7786C88.3309 157.829 88.7786 158.277 88.7786 158.829V159.802H72.3381V158.829Z" fill="#D9D9D9"/>
<path d="M61.1587 169.337C61.1587 168.792 61.6003 168.351 62.1451 168.351H162.103C162.648 168.351 163.09 168.792 163.09 169.337C163.09 169.882 162.648 170.324 162.103 170.324H62.1451C61.6003 170.324 61.1587 169.882 61.1587 169.337Z" fill="#D9D9D9"/>
<path d="M61.1587 176.571C61.1587 176.026 61.6003 175.585 62.1451 175.585H184.462C185.007 175.585 185.449 176.026 185.449 176.571C185.449 177.116 185.007 177.557 184.462 177.557H62.1451C61.6003 177.557 61.1587 177.116 61.1587 176.571Z" fill="#D9D9D9"/>
<path d="M61.1587 183.805C61.1587 183.26 61.6003 182.818 62.1451 182.818H177.886C178.431 182.818 178.873 183.26 178.873 183.805C178.873 184.35 178.431 184.791 177.886 184.791H62.1451C61.6003 184.791 61.1587 184.35 61.1587 183.805Z" fill="#D9D9D9"/>
<rect x="51.2944" y="221.618" width="205.177" height="63.1315" rx="8" fill="#F9F9F9"/>
<line x1="51.2944" y1="264.279" x2="256.472" y2="264.279" stroke="white" strokeWidth="2"/>
<rect x="61.1587" y="228.194" width="8.54906" height="8.54906" fill="#D9D9D9"/>
<rect x="206.493" y="270.939" width="38.142" height="10.5219" rx="2" fill="#D9D9D9"/>
<path d="M72.3381 232.482C72.3381 231.93 72.7859 231.482 73.3381 231.482H87.7786C88.3309 231.482 88.7786 231.93 88.7786 232.482V233.455H72.3381V232.482Z" fill="#D9D9D9"/>
<path d="M61.1587 242.991C61.1587 242.446 61.6003 242.004 62.1451 242.004H162.103C162.648 242.004 163.09 242.446 163.09 242.991C163.09 243.535 162.648 243.977 162.103 243.977H62.1451C61.6003 243.977 61.1587 243.535 61.1587 242.991Z" fill="#D9D9D9"/>
<path d="M61.1587 250.224C61.1587 249.68 61.6003 249.238 62.1451 249.238H184.462C185.007 249.238 185.449 249.68 185.449 250.224C185.449 250.769 185.007 251.211 184.462 251.211H62.1451C61.6003 251.211 61.1587 250.769 61.1587 250.224Z" fill="#D9D9D9"/>
<path d="M61.1587 257.458C61.1587 256.913 61.6003 256.472 62.1451 256.472H177.886C178.431 256.472 178.873 256.913 178.873 257.458C178.873 258.003 178.431 258.445 177.886 258.445H62.1451C61.6003 258.445 61.1587 258.003 61.1587 257.458Z" fill="#D9D9D9"/>
</svg>
