<svg width="30" height="31" viewBox="0 0 30 31" fill="none" xmlns="http://www.w3.org/2000/svg">
<path d="M0 15.5C0 11.5218 1.58035 7.70644 4.3934 4.8934C7.20644 2.08035 11.0218 0.5 15 0.5C18.9782 0.5 22.7936 2.08035 25.6066 4.8934C28.4196 7.70644 30 11.5218 30 15.5C30 19.4782 28.4196 23.2936 25.6066 26.1066C22.7936 28.9196 18.9782 30.5 15 30.5C11.0218 30.5 7.20644 28.9196 4.3934 26.1066C1.58035 23.2936 0 19.4782 0 15.5ZM8.57143 15.5C8.57143 15.7842 8.68431 16.0567 8.88524 16.2576C9.08617 16.4585 9.3587 16.5714 9.64286 16.5714H20.3571C20.6413 16.5714 20.9138 16.4585 21.1148 16.2576C21.3157 16.0567 21.4286 15.7842 21.4286 15.5C21.4286 15.2158 21.3157 14.9433 21.1148 14.7424C20.9138 14.5415 20.6413 14.4286 20.3571 14.4286H9.64286C9.3587 14.4286 9.08617 14.5415 8.88524 14.7424C8.68431 14.9433 8.57143 15.2158 8.57143 15.5Z" fill="#111111"/>
</svg>
