<svg width="21" height="42" viewBox="0 0 21 42" fill="none" xmlns="http://www.w3.org/2000/svg">
<path d="M0.564339 38.4589C0.384069 38.6592 0.243141 38.8949 0.149597 39.1525C0.0560532 39.4101 0.0117264 39.6845 0.0191479 39.9601C0.0265694 40.2356 0.0855961 40.507 0.192852 40.7586C0.30011 41.0102 0.453501 41.2372 0.644264 41.4265C0.83503 41.6159 1.05943 41.7639 1.30466 41.8621C1.54989 41.9604 1.81114 42.007 2.0735 41.9992C2.33586 41.9914 2.59419 41.9294 2.83374 41.8167C3.07329 41.704 3.28937 41.5429 3.46964 41.3426L20.4538 22.4536C20.8046 22.064 21 21.5481 21 21.0118C21 20.4755 20.8046 19.9596 20.4538 19.5699L3.46964 0.678932C3.29056 0.474171 3.07453 0.308826 2.8341 0.192501C2.59367 0.0761795 2.33363 0.0111961 2.06909 0.0013237C1.80454 -0.00854874 1.54077 0.0368881 1.29309 0.134998C1.0454 0.233105 0.818748 0.381927 0.626286 0.572819C0.433825 0.76371 0.279392 0.992874 0.171959 1.24699C0.0645275 1.5011 0.00623703 1.7751 0.000473022 2.05307C-0.00529099 2.33104 0.0415878 2.60745 0.138386 2.86624C0.235184 3.12502 0.379971 3.36103 0.564339 3.56054L16.2537 21.0118L0.564339 38.4589Z" fill="#6B6B6B" fillOpacity="0.7"/>
</svg>
